<?xml version="1.0" encoding="UTF-8" standalone="no"?>
<!-- Created with Inkscape (http://www.inkscape.org/) -->
<svg xmlns:inkscape="http://www.inkscape.org/namespaces/inkscape" xmlns:rdf="http://www.w3.org/1999/02/22-rdf-syntax-ns#" xmlns="http://www.w3.org/2000/svg" xmlns:xlink="http://www.w3.org/1999/xlink" xmlns:ns1="http://sozi.baierouge.fr" xmlns:cc="http://creativecommons.org/ns#" xmlns:sodipodi="http://sodipodi.sourceforge.net/DTD/sodipodi-0.dtd" xmlns:dc="http://purl.org/dc/elements/1.1/" id="svg2" xml:space="preserve" viewBox="0 0 154.5 117.26" version="1.1" inkscape:version="0.91 r13725">
  <defs id="defs6">
    <clipPath id="clipPath18">
      <path id="path20" d="m0-0.19192h124v36h-124v-36z" inkscape:connector-curvature="0"/>
    </clipPath>
    <mask id="mask22">
      <g id="g24">
        <g id="g26" clip-path="url(#clipPath18)">
          <path id="path28" style="fill:#000000;fill-opacity:.62890" d="m0-0.19192h124v36h-124v-36z" inkscape:connector-curvature="0"/>
        </g>
      </g>
    </mask>
    <clipPath id="clipPath34">
      <path id="path36" d="m0-0.19192h124v36h-124v-36z" inkscape:connector-curvature="0"/>
    </clipPath>
    <clipPath id="clipPath38">
      <path id="path40" d="m0 0h124v36h-124v-36z" inkscape:connector-curvature="0"/>
    </clipPath>
    <clipPath id="clipPath42">
      <path id="path44" d="m123.6 18.07c0-4.933-6.028-9.144-18.082-12.636-12.079-3.496-26.653-5.243-43.719-5.243-17.067 0-31.629 1.747-43.68 5.243-12.082 3.492-18.121 7.703-18.121 12.636 0 4.934 6.039 9.16 18.121 12.684 12.051 3.492 26.613 5.238 43.68 5.238 17.066 0 31.64-1.746 43.719-5.238 12.054-3.524 18.082-7.75 18.082-12.684z" inkscape:connector-curvature="0"/>
    </clipPath>
    <clipPath id="clipPath46">
      <path id="path48" d="m0-103.06h155v159.69h-155v-159.69z" inkscape:connector-curvature="0"/>
    </clipPath>
    <radialGradient id="radialGradient50" gradientUnits="userSpaceOnUse" cy="-22.65" cx="77.05" r="66.575">
      <stop id="stop52" style="stop-color:#ffffff;stop-opacity:.61961" offset="0"/>
      <stop id="stop54" style="stop-color:#ffffff;stop-opacity:0" offset="1"/>
    </radialGradient>
    <mask id="mask56">
      <g id="g58">
        <g id="g60" clip-path="url(#clipPath46)">
          <path id="path62" style="fill:url(#radialGradient50)" d="m0-103.06h155v159.69h-155v-159.69z" inkscape:connector-curvature="0"/>
        </g>
      </g>
    </mask>
    <radialGradient id="radialGradient64" gradientUnits="userSpaceOnUse" cy="-22.65" cx="77.05" r="66.575">
      <stop id="stop66" style="stop-color:#000000" offset="0"/>
      <stop id="stop68" style="stop-color:#000000" offset="1"/>
    </radialGradient>
    <clipPath id="clipPath100">
      <path id="path102" d="m18 5.8081h88v25h-88v-25z" inkscape:connector-curvature="0"/>
    </clipPath>
    <mask id="mask104">
      <g id="g106">
        <g id="g108" clip-path="url(#clipPath100)">
          <path id="path110" style="fill:#000000;fill-opacity:.14060" d="m18 5.8081h88v25h-88v-25z" inkscape:connector-curvature="0"/>
        </g>
      </g>
    </mask>
    <clipPath id="clipPath116">
      <path id="path118" d="m18 5.8081h88v25h-88v-25z" inkscape:connector-curvature="0"/>
    </clipPath>
    <clipPath id="clipPath120">
      <path id="path122" d="m18 6h88v25h-88v-25z" inkscape:connector-curvature="0"/>
    </clipPath>
    <linearGradient id="linearGradient256" y2="-14331" gradientUnits="userSpaceOnUse" x2="-1057.5" gradientTransform="matrix(.16248 -.78336 .79288 .11648 11622 891.67)" y1="-14331" x1="-1062.3">
      <stop id="stop258" style="stop-color:#73777a" offset="0"/>
      <stop id="stop260" style="stop-color:#8d9296" offset="1"/>
    </linearGradient>
    <linearGradient id="linearGradient274" y2="-15252" gradientUnits="userSpaceOnUse" x2="-348.84" gradientTransform="matrix(.08432 -.79552 .80016 .04056 12316 373.15)" y1="-15252" x1="-352.64">
      <stop id="stop276" style="stop-color:#73777a" offset="0"/>
      <stop id="stop278" style="stop-color:#8d9296" offset="1"/>
    </linearGradient>
    <linearGradient id="linearGradient292" y2="-7983.9" gradientUnits="userSpaceOnUse" x2="-3248.7" gradientTransform="matrix(.57096 -.5604 .58992 .542 6656.4 2542.7)" y1="-7983.9" x1="-3252.5">
      <stop id="stop294" style="stop-color:#73777a" offset="0"/>
      <stop id="stop296" style="stop-color:#8d9296" offset="1"/>
    </linearGradient>
    <linearGradient id="linearGradient310" y2="-3800.8" gradientUnits="userSpaceOnUse" x2="-2396.3" gradientTransform="matrix(.73728 -.31056 .31056 .73728 3035.1 2103.8)" y1="-3800.8" x1="-2399.4">
      <stop id="stop312" style="stop-color:#73777a" offset="0"/>
      <stop id="stop314" style="stop-color:#8d9296" offset="1"/>
    </linearGradient>
    <linearGradient id="linearGradient328" y2="-4885.6" gradientUnits="userSpaceOnUse" x2="-2929.1" gradientTransform="matrix(.702 -.38368 .4164 .68408 4181.9 2264.5)" y1="-4885.6" x1="-2931.5">
      <stop id="stop330" style="stop-color:#73777a" offset="0"/>
      <stop id="stop332" style="stop-color:#8d9296" offset="1"/>
    </linearGradient>
    <linearGradient id="linearGradient346" y2="-13402" gradientUnits="userSpaceOnUse" x2="-1650.7" gradientTransform="matrix(.23624 -.76432 .77696 .19544 10894 1379.2)" y1="-13402" x1="-1653.6">
      <stop id="stop348" style="stop-color:#73777a" offset="0"/>
      <stop id="stop350" style="stop-color:#8d9296" offset="1"/>
    </linearGradient>
    <linearGradient id="linearGradient364" y2="-14691" gradientUnits="userSpaceOnUse" x2="-1193.5" gradientTransform="matrix(.1352 -.78848 .78848 .1352 11808 1085.4)" y1="-14691" x1="-1202.3">
      <stop id="stop366" style="stop-color:#92979c" offset="0"/>
      <stop id="stop368" style="stop-color:#e3e4e6" offset="1"/>
    </linearGradient>
    <linearGradient id="linearGradient382" y2="-16119" gradientUnits="userSpaceOnUse" x2="84.656" gradientTransform="matrix(.00624 -.8 .80008 -.00288 12949 56.05)" y1="-16119" x1="78.206">
      <stop id="stop384" style="stop-color:#92979c" offset="0"/>
      <stop id="stop386" style="stop-color:#e3e4e6" offset="1"/>
    </linearGradient>
    <linearGradient id="linearGradient400" y2="-13176" gradientUnits="userSpaceOnUse" x2="-2043.8" gradientTransform="matrix(.2572 -.75752 .76152 .24552 10598 1731.3)" y1="-13176" x1="-2050.9">
      <stop id="stop402" style="stop-color:#92979c" offset="0"/>
      <stop id="stop404" style="stop-color:#e3e4e6" offset="1"/>
    </linearGradient>
    <linearGradient id="linearGradient418" y2="-14599" gradientUnits="userSpaceOnUse" x2="-1136.9" gradientTransform="matrix(.1452 -.78672 .79 .12752 11738 1009)" y1="-14599" x1="-1141.2">
      <stop id="stop420" style="stop-color:#92979c" offset="0"/>
      <stop id="stop422" style="stop-color:#e3e4e6" offset="1"/>
    </linearGradient>
    <linearGradient id="linearGradient436" y2="-15430" gradientUnits="userSpaceOnUse" x2="-611.58" gradientTransform="matrix(.072 -.79672 .79672 .072 12388 638.68)" y1="-15430" x1="-618.49">
      <stop id="stop438" style="stop-color:#92979c" offset="0"/>
      <stop id="stop440" style="stop-color:#e3e4e6" offset="1"/>
    </linearGradient>
    <linearGradient id="linearGradient454" y2="-16040" gradientUnits="userSpaceOnUse" x2="-59.718" gradientTransform="matrix(.0136 -.79992 .79992 .0136 12887 188.96)" y1="-16040" x1="-65.594">
      <stop id="stop456" style="stop-color:#92979c" offset="0"/>
      <stop id="stop458" style="stop-color:#e3e4e6" offset="1"/>
    </linearGradient>
    <linearGradient id="linearGradient472" y2="-17956" gradientUnits="userSpaceOnUse" x2="2368.8" gradientTransform="matrix(-.20304 -.77376 .77376 -.20304 14434 -1784.8)" y1="-17956" x1="2363.5">
      <stop id="stop474" style="stop-color:#92979c" offset="0"/>
      <stop id="stop476" style="stop-color:#e3e4e6" offset="1"/>
    </linearGradient>
    <linearGradient id="linearGradient490" y2="-16305" gradientUnits="userSpaceOnUse" x2="338.58" gradientTransform="matrix(-.01072 -.79992 .79968 -.03056 13082 -169.42)" y1="-16305" x1="332.98">
      <stop id="stop492" style="stop-color:#92979c" offset="0"/>
      <stop id="stop494" style="stop-color:#e3e4e6" offset="1"/>
    </linearGradient>
    <linearGradient id="linearGradient508" y2="-16208" gradientUnits="userSpaceOnUse" x2="55.118" gradientTransform="matrix(-.00192 -.8 .8 -.00192 13014 63.666)" y1="-16208" x1="49.943">
      <stop id="stop510" style="stop-color:#92979c" offset="0"/>
      <stop id="stop512" style="stop-color:#e3e4e6" offset="1"/>
    </linearGradient>
    <linearGradient id="linearGradient526" y2="-12700" gradientUnits="userSpaceOnUse" x2="-2110.5" gradientTransform="matrix(.28968 -.74568 .76072 .25104 10328 1680.8)" y1="-12700" x1="-2114.2">
      <stop id="stop528" style="stop-color:#92979c" offset="0"/>
      <stop id="stop530" style="stop-color:#e3e4e6" offset="1"/>
    </linearGradient>
    <linearGradient id="linearGradient544" y2="-13222" gradientUnits="userSpaceOnUse" x2="-2121.7" gradientTransform="matrix(.25144 -.75944 .75944 .25144 10628 1795.5)" y1="-13222" x1="-2127.5">
      <stop id="stop546" style="stop-color:#92979c" offset="0"/>
      <stop id="stop548" style="stop-color:#e3e4e6" offset="1"/>
    </linearGradient>
  </defs>
  <g id="g10" transform="matrix(1.25 0 0 -1.25 0 117.26)">
    <g id="g12">
      <g id="g14">
        <g id="g30" mask="url(#mask22)">
          <g id="g70">
            <g id="g72" clip-path="url(#clipPath34)">
              <g id="g74" transform="translate(0 -.19192)">
                <g id="g78">
                  <g id="g80" clip-path="url(#clipPath38)">
                    <g id="g82">
                      <g id="g84">
                        <g id="g86" clip-path="url(#clipPath42)">
                          <g id="g88" transform="matrix(.8 0 0 -.22544 0 12.766)">
                            <g id="g92" mask="url(#mask56)">
                              <path id="path94" style="fill-rule:evenodd;fill:url(#radialGradient64)" d="m123.6 18.07c0-4.933-6.028-9.144-18.082-12.636-12.079-3.496-26.653-5.243-43.719-5.243-17.067 0-31.629 1.747-43.68 5.243-12.082 3.492-18.121 7.703-18.121 12.636 0 4.934 6.039 9.16 18.121 12.684 12.051 3.492 26.613 5.238 43.68 5.238 17.066 0 31.64-1.746 43.719-5.238 12.054-3.524 18.082-7.75 18.082-12.684z" inkscape:connector-curvature="0"/>
                            </g>
                          </g>
                        </g>
                      </g>
                    </g>
                  </g>
                </g>
              </g>
            </g>
          </g>
        </g>
      </g>
      <g id="g96">
        <g id="g112" mask="url(#mask104)">
          <g id="g124">
            <g id="g126" clip-path="url(#clipPath116)">
              <g id="g128" transform="translate(0 -.19192)">
                <g id="g132">
                  <g id="g134" clip-path="url(#clipPath120)">
                    <g id="g136">
                      <path id="path138" style="fill-rule:evenodd;fill:#000000" d="m102.32 26.871-1.199-0.68 0.598-1.519 1.883-1c0.718-0.371 1.078-0.574 1.078-0.602 0-0.132 0.105-0.293 0.32-0.476 0.375-0.321 0.387-0.551 0.039-0.684-0.531-0.133-0.906-0.238-1.117-0.316-1.067-0.403-1.867-0.735-2.402-1-0.321-0.16-0.254-0.403 0.199-0.723 0.242-0.16 0.508-0.293 0.801-0.398-1.067-0.321-2.04-0.586-2.918-0.801-0.479-0.106-1.014-0.414-1.6-0.918-0.773-0.668-1.305-1.094-1.602-1.281-0.503-0.321-0.453-0.653 0.161-1 0.933-0.535 1.414-0.828 1.441-0.879 0.16-0.242-0.547-0.481-2.121-0.723-2.348-0.266-4.266-0.492-5.758-0.68-1.707-0.238-2.562-0.492-2.562-0.757 0-0.457-0.254-0.801-0.758-1.043-0.856-0.399-1.348-0.879-1.481-1.438-0.054-0.32-0.121-0.84-0.199-1.562-0.16-0.532-0.855-0.786-2.082-0.758-2.746 0.133-5.652 0.254-8.719 0.359-3.359 0.106-5.359 0.133-6 0.078-0.558-0.05-1.558-0.05-3 0-2.027 0.082-2.851-0.011-2.48-0.277 0.48-0.375 0.64-0.574 0.48-0.602-0.48-0.078-1.441-0.105-2.879-0.078-1.574 0.051-2.652 0.078-3.242 0.078-1.172 0-2.133-0.171-2.879-0.519-0.375-0.16-1.558-0.133-3.558 0.082-2.137 0.184-4.149 0.492-6.043 0.918-1.653 0.375-1.531 0.707 0.359 1 0.934 0.133 2.043 0.238 3.32 0.32-1.171 0.051-2.359 0.16-3.558 0.32-2.453 0.321-3.801 0.708-4.039 1.161-0.215 0.398-0.707 0.558-1.481 0.48-2.082-0.293-3.945-0.453-5.601-0.48-2.559-0.028-2.305 0.254 0.761 0.839 1.52 0.293 3.293 0.586 5.321 0.879l-7.281 0.879c-0.852 0.11-1.801 0.43-2.84 0.961-1.067 0.535-1.227 0.813-0.481 0.84 0.586 0.055 0.574 0.106-0.039 0.16-0.961 0.106-1.508 0.188-1.64 0.242-0.239 0.079-0.532 0.321-0.879 0.719-0.293 0.348-0.508 0.641-0.641 0.879-0.055 0.133-0.121 0.215-0.199 0.242-0.16 0.106-0.387 0.293-0.68 0.559s-0.562 0.375-0.801 0.32c-0.64-0.105-1.547-0.105-2.718 0-1.442 0.106-2.481 0.281-3.122 0.52-0.292 0.105-0.453 0.199-0.48 0.281 2.535 0.531 4.133 0.801 4.801 0.801l-0.84 0.039c-1.121 0.055-1.734 0.105-1.84 0.16-0.16 0.027-0.066 0.105 0.277 0.238 0.321 0.106 0.59 0.16 0.801 0.16 0.133 0 0.563 0.121 1.281 0.36 0.879 0.32 1.559 0.535 2.04 0.64 0.48 0.082 0.652 0.133 0.519 0.161-0.398 0.027-0.641 0.105-0.719 0.242-0.105 0.211-0.054 0.398 0.16 0.558 0.215 0.16 0.52 0.239 0.918 0.239 0.348 0 0.68 0.066 1 0.203 0.11 0.051 0.414 0.211 0.922 0.476 0.453 0.27 0.946 0.84 1.481 1.723l-1.281 0.598c-0.239 0.187-0.454 0.375-0.641 0.562-0.399 0.399-0.52 0.641-0.359 0.719 0.535 0.266 1.335 0.398 2.402 0.398 0.238 0 0.558 0.067 0.957 0.203 0.242 0.079 0.519 0.184 0.84 0.321 2.082 0.426 3.906 0.652 5.48 0.679 2.215 0.079 4.746 0.118 7.602 0.118 0.824 0.027 2.133 0.136 3.918 0.32 2.054 0.215 4.281 0.375 6.679 0.48 1.977 0.082 4.297 0.282 6.961 0.602 1.868 0.238 3.481 0.305 4.84 0.199 2.028-0.16 7.336-0.695 15.922-1.601 1.84-0.211 4.664-0.266 8.481-0.161 4.425 0.11 6.691 0.161 6.796 0.161 0.883-0.051 1.403-0.133 1.563-0.239 0.32-0.265 0.801-0.492 1.437-0.679 1.547-0.453 2.188-0.653 1.922-0.602z" inkscape:connector-curvature="0"/>
                    </g>
                  </g>
                </g>
              </g>
            </g>
          </g>
        </g>
      </g>
      <path id="path140" style="fill-rule:evenodd;fill:#e3e4e6" d="m92.238 77.679-0.277-4.84c-4.668-10.132-8-16.824-10-20.078-1.359-2.269-4.629-0.336-9.801 5.797-5.066 6.777-7.812 10.309-8.238 10.602-0.828 0.613-6.242 3.972-16.242 10.082l-4.078 7.918-5.204 5.48 3.364-0.121c2.023-0.105 3.812-0.133 5.359-0.078l1.199 0.719c1.012 0.48 2 0.695 2.961 0.64 1.547-0.082 3.039-0.226 4.481-0.441l2.879-1.277c2.054-0.856 3.453-1.309 4.199-1.364 1.199-0.051 2.508-0.199 3.922-0.437l1.636-1.602c1.176-1.066 1.977-1.613 2.403-1.64 0.719-0.051 1.906-0.532 3.558-1.438l1-0.922c0.829-0.691 1.602-1.32 2.321-1.879 0.613-0.453 1.187-0.761 1.718-0.922 0.668-0.183 1.336-0.492 2-0.918 1.414-0.906 3.321-1.492 5.723-1.761l1.758-0.797c1.254-0.535 2.027-0.817 2.32-0.844 0.481-0.023 0.828 0.016 1.039 0.121z" inkscape:connector-curvature="0"/>
      <path id="path142" style="fill-rule:evenodd;fill:#d3d4d6" d="m57.199 88.999c-0.664-0.054-1.254-0.078-1.758-0.078-0.961 0-1.613 0.106-1.961 0.321l-3.601 2.398 0.883-0.32c0.746-0.215 1.558-0.321 2.437-0.321h3.082l0.278 1.84 1.722-0.757c1.25-0.536 2.094-0.856 2.52-0.961 0.719-0.188 1.398-0.321 2.039-0.403l-2.442-1.476-3.199-0.243z" inkscape:connector-curvature="0"/>
      <path id="path144" style="fill-rule:evenodd;fill:#d3d4d6" d="m66.762 90.281 3.117-2.879 0.402-0.684-0.402-0.797h-2.277c-1.227 0.078-2.028 0.305-2.403 0.68l-1.719 1.438 2.918-0.637v0.519l0.364 2.36z" inkscape:connector-curvature="0"/>
      <path id="path146" style="fill-rule:evenodd;fill:#d3d4d6" d="m87.602 79.242 1.199-0.243c0.371-0.105 1.172-0.585 2.398-1.441l-0.519-1.519v-0.918l-0.52-1.321c-0.187-0.453-0.64-0.894-1.359-1.32l-1.321 0.519v0.641l2 2.281 0.122 1.719-2.122 0.68-0.519-0.68c-1.176 0-2.027 0.094-2.563 0.281-0.32 0.106-0.679 0.012-1.078-0.281l-0.519-0.519-1.199-1.481-1.442 2.68 0.52 0.679 0.519 1.04-2.801 0.96-1.839 0.243-0.68-0.801-0.68-0.242-1.199-0.559v-2.519l0.398-2.52c0.11-0.375-0.105-1-0.636-1.883l-1.602-1.879-4.558 4.68 4 3.32c0.371 0.266 0.636 0.801 0.796 1.602l0.282 0.801h0.679c0.266 0.371 0.403 0.73 0.403 1.078l0.597 3.281 2.719-1.16 1.082-0.641 2-0.801 1.039-0.96 0.879-0.438c0.695-0.348 1.297-0.602 1.801-0.762 0.801-0.265 2.043-0.8 3.723-1.597z" inkscape:connector-curvature="0"/>
      <path id="path148" style="fill-rule:evenodd;fill:#83888c" d="m92.039 76.558 0.199 1.121 0.403-4.437c0.293-3.203 0.558-5.43 0.8-6.684l0.52-3-0.52-1.519c-0.347-1.254-0.496-2.438-0.441-3.559 0.188-3.387 0.281-5.199 0.281-5.441 0-0.184 0.117-1.454 0.36-3.797 0.214-2.348 0.304-3.883 0.281-4.602l0.078-1.281c0.105-1.094 0.32-2.211 0.641-3.36 0.32-1.199 0.547-2.214 0.679-3.039 0-0.16 0.067-0.961 0.2-2.402 0.242-2.773 0.613-4.863 1.121-6.277 0.371-1.121 0.812-2.586 1.32-4.403-1.387-0.824-2.723-1.652-4-2.476-0.773-0.508-1.723-1.254-2.84-2.242l-1.402-1.321c-2.371-1.121-4.25-1.824-5.641-2.121-0.879-0.16-2.023-0.652-3.437-1.476-0.696-0.403-1.309-0.789-1.84-1.16l-3.121-0.122-9.641 12.442 17.723 34.117 1.957 6.801 0.562 1.082c0.453 0.769 0.946 1.316 1.481 1.637 0.504 0.296 0.84 0.96 1 2l0.039 1.441 1.039 0.281c0.719 0.321 1.215 0.813 1.48 1.481 0.293 0.664 0.535 1.437 0.719 2.316z" inkscape:connector-curvature="0"/>
      <path id="path150" style="fill-rule:evenodd;fill:#73777a" d="m81.121 45.839 0.481 1.16l3.398-1.398 0.84-0.441c0.613-0.293 1.133-0.481 1.558-0.559l2.403-0.402 2.398 0.8-0.32-0.839c-0.238-0.668-0.399-1.254-0.481-1.758l-0.199-1.203-3.597-2.797-1.204-0.403 0.922-1.757c0.719-1.203 1.414-1.883 2.078-2.043 1.067-0.266 2.137-0.133 3.204 0.402l2.597 2 0.16-0.043 0.161-2c0.242-2.773 0.613-4.863 1.121-6.277 0.371-1.121 0.812-2.586 1.32-4.403l-3-1.839-1.16 1.761c0.078 0.239 0.066 0.465-0.039 0.68-0.16 0.48-0.617 0.719-1.364 0.719-0.824 0-1.371-0.039-1.636-0.117-0.028 0-0.617-0.227-1.762-0.68-1.121-0.375-1.84-0.617-2.16-0.723-0.426-0.133-0.641-0.359-0.641-0.68 0-0.531 0.067-1.265 0.199-2.199 0-0.535 0.801-0.801 2.403-0.801l-4.199-1.398 1.32-0.48c1.039-0.348 1.957-0.602 2.758-0.762-2.16-0.906-3.692-1.453-4.602-1.641-0.879-0.16-2.023-0.652-3.437-1.476-0.696-0.403-1.309-0.789-1.84-1.16l-3.121-0.122-7.2 9.321c-0.347 2.531-0.558 4.734-0.64 6.597l5.961 11.481c3.277-6.16 5.344-9.414 6.199-9.758 0.934-0.402 2.332-0.469 4.199-0.199-0.398 0.531-0.597 1.133-0.597 1.797l0.199 2.402 1.597 3.398c-0.664 0.829-1.16 1.575-1.476 2.243l-0.32 0.757 0.597 0.801c-0.371-0.105-0.773-0.121-1.199-0.039-0.855 0.133-1.453 0.613-1.801 1.438-0.32 0.828-0.344 1.707-0.078 2.64z" inkscape:connector-curvature="0"/>
      <path id="path152" style="fill-rule:evenodd;fill:#73777a" d="m87.199 57.601-2.801-1.801-2.796-0.359 1.199 2.277c-0.028-0.183 0.64 0.082 2 0.801 1.465 0.773 2.332 1.133 2.597 1.082 0.536-0.133 1.204 0 2 0.398l1.204 0.403-1.403-3.801-2 1z" inkscape:connector-curvature="0"/>
      <path id="path154" style="fill-rule:evenodd;fill:#73777a" d="m91.32 74.242c0.239 0.476 0.465 1.172 0.68 2.078l-0.801-3.918c-0.265-0.242-0.531-0.524-0.801-0.844-0.531-0.613-0.796-1.133-0.796-1.559v-1l-2.204-2.597-2-3-1.476-3.281 1.797 6.199 0.562 1.082c0.453 0.769 0.946 1.316 1.481 1.637 0.504 0.296 0.84 0.96 1 2l0.039 1.441 1.039 0.281c0.719 0.321 1.215 0.813 1.48 1.481z" inkscape:connector-curvature="0"/>
      <path id="path156" style="fill-rule:evenodd;fill:#8d9296" d="m91.199 47.199 1-2.2l-3.199-1.199c-0.801 0.133-1.668 0.332-2.602 0.602-0.586 0.156-1.226 0.57-1.918 1.238l-0.878 0.961 4 2 0.757-0.043c0.586-0.023 1-0.078 1.243-0.156 0.398-0.137 0.933-0.535 1.597-1.203z" inkscape:connector-curvature="0"/>
      <path id="path158" style="fill-rule:evenodd;fill:#8d9296" d="m93.762 69.402-0.321-2.844c-0.054-0.637 0.118-1.637 0.52-3l-2.082-2.559-4-1.48 2.402 2.281c-0.109 0.133-0.16 0.321-0.16 0.559-0.027 0.48 0.211 1 0.719 1.562 0.801 0.879 1.238 1.453 1.32 1.719 0.188 1.332 0.32 2.535 0.399 3.602 0.054 0.664 0.054 1.773 0 3.316l-0.118 2.16 1.321-5.316z" inkscape:connector-curvature="0"/>
      <path id="path160" style="fill-rule:evenodd;fill:#8d9296" d="m92.281 52.718v-0.918c0-0.64-0.043-1.133-0.121-1.48h-0.398c-0.16 0-0.657 0.215-1.481 0.64l-1.203 0.68 1.082 1.078c0.719 0.723 1.078 1.254 1.078 1.602l1.043-1.602z" inkscape:connector-curvature="0"/>
      <path id="path162" style="fill-rule:evenodd;fill:#8d9296" d="m87.879 38.999 1.359 1.2 0.403 1.32 1.558-0.32 1.762-2.598c0.266-0.375 0.625-1.359 1.078-2.961-0.906-0.695-1.531-1.133-1.879-1.32l-0.519-0.281-0.961-0.118-1.84 0.52c-0.371 0-0.828 0.453-1.36 1.359-0.32 0.559-0.601 1.094-0.839 1.602l-0.243 0.597 0.563 0.282c0.398 0.238 0.707 0.48 0.918 0.718z" inkscape:connector-curvature="0"/>
      <path id="path164" style="fill-rule:evenodd;fill:#83888c" d="m93.961 32.121 1.32-1.282 0.199-1-0.281-1.718c-0.398-0.907-0.773-1.309-1.121-1.2-0.211 0.051-0.57 0.25-1.078 0.598l-0.719 0.52-1.48 1.601 1.597 1.078c0.723 0.481 1.243 0.949 1.563 1.403z" inkscape:connector-curvature="0"/>
      <path id="path166" style="fill-rule:evenodd;fill:#83888c" d="m95.961 26.64 0.801-1-0.403-0.519c-0.586-0.266-1.011-0.36-1.281-0.282-0.156 0.055-0.266 0.188-0.316 0.403v0.316l1.199 1.082z" inkscape:connector-curvature="0"/>
      <path id="path168" style="fill-rule:evenodd;fill:#83888c" d="m87.16 27.921c0.961-0.453 1.442-0.75 1.442-0.882 0-0.133-0.469-0.399-1.403-0.797-0.371-0.16-0.824-0.215-1.359-0.16l-0.641 0.16 1.961 1.679z" inkscape:connector-curvature="0"/>
      <path id="path170" style="fill-rule:evenodd;fill:#83888c" d="m89.762 26.441h0.316c0.617-0.266 0.684-0.508 0.203-0.723-0.48-0.238-0.949-0.226-1.402 0.043-0.078 0.051 0.043 0.184 0.359 0.399 0.16 0.105 0.336 0.199 0.524 0.281z" inkscape:connector-curvature="0"/>
      <path id="path172" style="fill-rule:evenodd;fill:#979ca1" d="m92 55.199c0.426 1.468 0.762 2.668 1 3.601v-0.32c0.188-3.387 0.281-5.199 0.281-5.441 0-0.184 0.117-1.454 0.36-3.797 0.214-2.348 0.304-3.883 0.281-4.602l0.078-1.281c0.105-1.094 0.32-2.211 0.641-3.36 0.32-1.199 0.547-2.214 0.679-3.039 0-0.16 0.067-0.961 0.2-2.402 0.242-2.773 0.613-4.863 1.121-6.277 0.371-1.121 0.812-2.586 1.32-4.403l-1.242-0.757-0.758 3.519c-0.32 0.453-0.641 0.934-0.961 1.442-0.668 0.984-1 1.558-1 1.718-0.32 2.133-0.348 3.934-0.078 5.399 0.156 0.906 0.223 1.496 0.199 1.761l-0.121 0.122-2.078 3.117 0.398 1.082 0.2 5.121-0.239 6.316c0 0.403-0.082 0.895-0.242 1.481-0.105 0.402-0.117 0.734-0.039 1z" inkscape:connector-curvature="0"/>
      <path id="path174" style="fill-rule:evenodd;fill:#83888c" d="m83.68 23.359 1.601-0.117-0.203-0.481c-0.133-0.347-0.199-0.629-0.199-0.84 0-0.375-0.16-0.734-0.481-1.082h-1.519c-0.16 0-0.305 0.067-0.438 0.2-0.136 0.136-0.16 0.269-0.082 0.402 0.133 0.183 0.575 0.824 1.321 1.918z" inkscape:connector-curvature="0"/>
      <path id="path176" style="fill-rule:evenodd;fill:#83888c" d="m85.199 28.718-2.597-1.879c-0.11-0.054-0.27-0.054-0.481 0-0.242 0.055-0.414 0.149-0.519 0.282-0.082 0.105 0.117 0.347 0.597 0.718 0.242 0.188 0.496 0.36 0.762 0.52l2.238 0.359z" inkscape:connector-curvature="0"/>
      <path id="path178" style="fill-rule:evenodd;fill:#83888c" d="m81.16 19.441 0.442-1.199-1.204-1.121c-0.023-0.133-0.332-0.133-0.918 0l1.68 2.32z" inkscape:connector-curvature="0"/>
      <path id="path180" style="fill-rule:evenodd;fill:#65686b" d="m77.801 15.601c0-0.187 0.144-0.359 0.437-0.519 0.27-0.137 0.496-0.204 0.684-0.204 0.105 0 0.758 0.231 1.957 0.68 0.586 0.242 1.16 0.481 1.723 0.723l0.519 0.48c0.453 0.348 1.012 0.52 1.68 0.52 1.066 0 2.133 0.133 3.199 0.398l1.801 0.922 2.199 2.277 4.719 2.243c-2.344-1.68-3.68-2.653-4-2.922l-0.52-0.399-2.078-2.32c-2.48-0.852-3.988-1.348-4.519-1.481l-2.204-0.8-3.597-1.918-3.082-0.403-1.039 0.082-0.078 1.52 1.597 4.519c0.403-2 0.602-3.132 0.602-3.398z" inkscape:connector-curvature="0"/>
      <path id="path182" style="fill-rule:evenodd;fill:#c9cacc" d="m69.32 78.48c0.375-0.371 0.614-0.68 0.719-0.922l0.563-1.598c0.476-1.121 1.039-1.851 1.679-2.199 0.934-0.508 1.465-1.203 1.598-2.082 0.082-0.691 0.242-1.051 0.48-1.078 0.426-0.027 0.719-0.707 0.879-2.043 0.082-0.691 0.11-1.371 0.082-2.039l4.602-3.277c3.012-2.481 4.465-4.442 4.359-5.883l-0.32-3.52-0.199-0.519c-0.11-0.613-0.137-1.602-0.082-2.961 0.082-2.078 0.105-3.238 0.082-3.481-0.028-0.796-0.242-1.613-0.641-2.437-0.32-0.695-0.652-1.602-1-2.723-0.453-1.492-0.789-2.531-1-3.117l-2.48-6.602 0.121-2.878c0.105-2.133 0.277-3.707 0.519-4.719 0.184-0.828 0.465-1.281 0.84-1.363 0.106-0.051 0.012-0.426-0.281-1.118-0.348-0.8-0.84-1.734-1.481-2.8-0.746-1.149-1.187-1.868-1.32-2.161-0.453-0.878-0.906-2.214-1.359-4l-0.801 0.321c-2.371-0.055-4.172-0.039-5.399 0.039-0.054 0-0.839 0.148-2.359 0.441-0.883 0.184-1.828 0.145-2.84-0.121-0.933-0.238-2.254-0.762-3.961-1.558-1.519-0.723-2.375-1.083-2.558-1.083-0.137-0.027-1.59 0.04-4.364 0.2-1.652 0.082-2.984 0.254-4 0.519-0.691 0.242-1.144 0.375-1.359 0.403-0.184 0-0.68 0.253-1.48 0.757-0.774 0.481-1.305 0.735-1.598 0.762-0.266 0-0.707 0.106-1.32 0.32-0.614 0.215-1.067 0.332-1.36 0.36h0.438l-1.278 0.082c-0.507 0.023-1.574 0.051-3.203 0.078-0.851 0-1.718 0.078-2.597 0.238-1.336 0.242-2.094 0.387-2.282 0.442-0.398 0.105-0.734 0.293-1 0.558l-3.679 2.922c2.215 5.094 3.332 8.266 3.359 9.52 0.215 3.226 0.32 5.105 0.32 5.64l0.039 0.84c-0.586 4-0.773 7.52-0.558 10.559 0.133 1.84 0.558 4.722 1.281 8.64 0.774 3.973 1.238 6.453 1.399 7.442 0.48 2.293 0.8 4.066 0.96 5.32l0.52 4.559c1.227 4.453 2 7.386 2.32 8.8 0.293 1.414 0.465 2.934 0.52 4.559l-0.442 8.121 7.801-3.922c1.067-0.558 2.547-0.945 4.442-1.16 2.425-0.238 4.121-0.492 5.078-0.758 3.441-0.933 5.84-1.972 7.203-3.121 0.051-0.051 0.238-0.492 0.558-1.32 0.266-0.586 1.094-1.184 2.481-1.801 1.437-0.637 2.559-1.332 3.359-2.078z" inkscape:connector-curvature="0"/>
      <path id="path184" style="fill-rule:evenodd;fill:#d7dce0" d="m48.84 87.839c1.015-2.16 1.187-3.504 0.519-4.039-0.425-0.347-1.398-0.761-2.918-1.242-1.441-0.449-2.429-0.973-2.961-1.559-0.96-1.093-1.785-1.945-2.48-2.558-1.145-1.039-2.414-1.973-3.801-2.801 0.723 2.719 1.094 4.16 1.121 4.32 0.293 1.414 0.465 2.934 0.52 4.559l-0.442 8.121 7.801-3.922c0.746-0.398 1.629-0.691 2.641-0.879z" inkscape:connector-curvature="0"/>
      <path id="path186" style="fill-rule:evenodd;fill:#d7dce0" d="m50.121 81.601 0.598-2.723-2-1.199c-0.426-0.293-0.864-0.597-1.321-0.918-0.878-0.668-1.343-1.054-1.398-1.16l-0.68-2-0.398-2.801 1.598-1.398c1.199-1.067 2.093-1.934 2.679-2.602 1.735-2 3.84-3.668 6.321-5 1.121-0.64 1.8-1.093 2.039-1.359 0.136-0.16 0.148-0.242 0.043-0.242l-0.68-0.321-4.32-1.597c-1.735 0.347-2.934 0.679-3.602 1-0.426 0.211-0.801 0.492-1.121 0.84l-2.879 3.48c-2.133 2.32-3.359 3.586-3.68 3.801-0.215 0.105-0.425 0.277-0.64 0.519l-0.282 0.278-2 4.281 0.922 1.039c0.801 0.855 1.692 1.613 2.68 2.281 0.906 0.586 1.641 1.188 2.199 1.801 0.668 0.664 1.199 1.16 1.602 1.481 1.066 0.796 2.504 1.636 4.32 2.519z" inkscape:connector-curvature="0"/>
      <path id="path188" style="fill-rule:evenodd;fill:#d7dce0" d="m58.719 72.082 3.082-2.403c0.265-0.187 0.801-0.32 1.597-0.398l0.321-1.481-2.399-0.801c-0.215-0.078-1.922 0.387-5.121 1.403l-1.597 4 1.476-0.043c1.094-0.051 1.977-0.145 2.641-0.277z" inkscape:connector-curvature="0"/>
      <path id="path190" style="fill-rule:evenodd;fill:#d7dce0" d="m56 81.281c0.215-0.055 0.48-0.188 0.801-0.403 1.332-1.199 1.933-2.093 1.801-2.679-0.137-0.614-0.067-1.278 0.199-2l1.719-1.719c-1.415-0.398-2.415-0.398-3 0-0.375 0.238-0.852 0.707-1.442 1.398l-0.758 0.922c-0.668 1.199-0.972 2-0.922 2.399 0.055 0.242 0.043 0.695-0.039 1.359l-0.16 0.922 0.121 0.801 1.68-1z" inkscape:connector-curvature="0"/>
      <path id="path192" style="fill-rule:evenodd;fill:#d7dce0" d="m66.398 69.679 1 1.32 0.801-1.519c0.348-0.934 0.414-1.426 0.199-1.481-0.132-0.054-0.093-0.48 0.122-1.281 0.16-0.636 0.32-1.144 0.48-1.519 0.133-0.348 0.172-0.481 0.121-0.399h-2.199l-0.801 2.399c-0.133 0.32-0.121 0.828 0.039 1.519l0.238 0.961z" inkscape:connector-curvature="0"/>
      <path id="path194" style="fill-rule:evenodd;fill:#d7dce0" d="m70.281 64.199c0.692 0.269 1.199 0.402 1.52 0.402 0.344 0 0.574-0.066 0.679-0.199 0.079-0.082 0.188-0.215 0.321-0.403l2-1.597-2.403-0.922c-0.531 0.48-1.332 0.855-2.398 1.121-0.668 0.16-0.973 0.414-0.922 0.758l0.242 0.441 0.961 0.399z" inkscape:connector-curvature="0"/>
      <path id="path196" style="fill-rule:evenodd;fill:#d7dce0" d="m77.801 54.601c1.277 0.719 2.011 0.918 2.199 0.598l3.398-1-0.199-1.2c-0.265-1.597-0.558-2.464-0.879-2.597-2.054-0.801-3.492-1.242-4.32-1.32l-3.199-0.083-0.801 0.282c-1.332 0.48-2.094 0.785-2.281 0.918-0.133 0.082-0.371 0.453-0.719 1.121l-0.48 0.961 3.679 0.32c0.453 0.078 0.961 0.293 1.52 0.641 0.347 0.238 1.043 0.691 2.082 1.359z" inkscape:connector-curvature="0"/>
      <path id="path198" style="fill-rule:evenodd;fill:#d7dce0" d="m72.602 39.402c-0.188 0.023-0.575 0.012-1.161-0.043l-0.839-0.078 1 2.199c0.21 0.32 0.679 0.707 1.398 1.16 0.348 0.215 0.68 0.399 1 0.559l1.121-0.2 0.879-0.359c0.641-0.293 1.078-0.547 1.32-0.762 0.215-0.16 0.586-0.304 1.121-0.437 0.586-0.133 1.012-0.281 1.278-0.442 0.535-0.347 0.426-0.546-0.321-0.597-1.386-0.535-2.41-0.91-3.078-1.121-0.425-0.133-1.105-0.16-2.039-0.082-0.722 0.054-1.281 0.121-1.679 0.203z" inkscape:connector-curvature="0"/>
      <path id="path200" style="fill-rule:evenodd;fill:#d7dce0" d="m53.922 41.8c0.398 0 1.09-0.308 2.078-0.922l2.801-2.277-1.879 0.277-3.801 1.602c-1.066-0.453-2.133-0.879-3.199-1.281-0.668-0.239-1.137-0.547-1.402-0.918-0.133-0.188-0.2-0.348-0.2-0.481l-0.601 0.879 1.082 1 0.437 0.281c0.348 0.188 0.735 0.293 1.16 0.321 0.668 0.078 1.11 0.613 1.321 1.597l2.203-0.078z" inkscape:connector-curvature="0"/>
      <path id="path202" style="fill-rule:evenodd;fill:#c1c2c7" d="m47.801 68.48 1.758-1.441c1.203-1.067 1.882-1.786 2.043-2.161l0.398-0.879 5.719-3.32 0.281-0.597-1.68-0.481c-0.586-0.16-1.414-0.496-2.48-1l-1.442-0.723c-0.586 0.348-1.253 0.614-2 0.801-0.453 0.133-1.105 0.387-1.957 0.762l-1.121 0.558-3.32 3.879c-1.066 0.934-1.762 1.641-2.078 2.121l-1.602 2.2 1.602 0.883c0.586 0.343 2.543 0.144 5.879-0.602z" inkscape:connector-curvature="0"/>
      <path id="path204" style="fill-rule:evenodd;fill:#a4a4a8" d="m32.359 15.718-3.679 2.922c2.187 5.067 3.308 8.238 3.359 9.52 0.988-1.36 1.906-2.414 2.762-3.161 1.066-0.933 2.133-1.8 3.199-2.597l2.801-0.403 1.801-0.8 0.796-4.399-0.558-0.801c-0.453-0.613-0.918-1.148-1.399-1.597-0.507 0.023-1.574 0.051-3.203 0.078-0.851 0-1.718 0.078-2.597 0.238-1.336 0.242-2.094 0.387-2.282 0.442-0.398 0.105-0.734 0.293-1 0.558z" inkscape:connector-curvature="0"/>
      <path id="path206" style="fill-rule:evenodd;fill:#acadb1" d="m67.602 21.601 1.957 2.32c-0.059-0.093-0.02-0.187 0.121-0.281 0.242-0.16 0.812-0.238 1.718-0.238h2.403l2.16-0.32c1.68-0.215 3.078-0.364 4.199-0.442l-0.32-0.719c-0.348-0.8-0.84-1.734-1.481-2.8-0.746-1.149-1.187-1.868-1.32-2.161-0.453-0.878-0.906-2.214-1.359-4l-0.801 0.321c-2.371-0.055-4.172-0.039-5.399 0.039-0.054 0-0.839 0.148-2.359 0.441-0.883 0.184-1.828 0.145-2.84-0.121-0.933-0.238-2.254-0.762-3.961-1.558-1.519-0.723-2.375-1.083-2.558-1.083l-0.043 0.04c0.375 0.32 0.707 0.64 1 0.96l0.281 0.403c0.133 0.933 0.266 2.398 0.398 4.398 0.082 1.254 0.309 2.465 0.68 3.641l0.524 1.359 0.957-0.199c0.8-0.133 1.613-0.199 2.441-0.199 1.332 0 2.535 0.066 3.602 0.199z" inkscape:connector-curvature="0"/>
      <path id="path208" style="fill-rule:evenodd;fill:#b5b6b8" d="m67 77.199c0 0.242-0.293 0.652-0.879 1.242l-2.723 2.359-0.199-1.601c0-0.399-0.398-1.399-1.199-3l-1.398-1.2-1.801 1.2-0.199 0.601c-0.481 1.465-0.95 2.535-1.403 3.199-0.32 0.508-0.453 1.188-0.398 2.04l0.199 1.16-1.602 2.601c-0.32 0.508-0.851 0.973-1.597 1.399 0.691-0.078 1.332-0.211 1.918-0.399 3.441-0.933 5.84-1.972 7.203-3.121 0.051-0.051 0.238-0.492 0.558-1.32 0.266-0.586 1.094-1.184 2.481-1.801 1.437-0.637 2.559-1.332 3.359-2.078 0.375-0.371 0.614-0.68 0.719-0.922l0.563-1.598c0.476-1.121 1.039-1.851 1.679-2.199 0.934-0.508 1.465-1.203 1.598-2.082 0.082-0.691 0.242-1.051 0.48-1.078 0.426-0.027 0.719-0.707 0.879-2.043 0.082-0.691 0.11-1.371 0.082-2.039l4.602-3.277c3.012-2.481 4.465-4.442 4.359-5.883l-0.32-3.52-0.199-0.519c-0.11-0.613-0.137-1.602-0.082-2.961 0.082-2.078 0.105-3.238 0.082-3.481-0.028-0.796-0.242-1.613-0.641-2.437-0.266-0.563-0.652-1.629-1.16-3.199-0.508 0.613-0.762 1.265-0.762 1.957 0 0.668-0.133 1.269-0.398 1.8l-0.403 0.602-1.597 0.199-0.801 0.801c-0.32 0.32-1.121 0.785-2.398 1.398l-1.801 0.801 4.398 1c0.879 0.188 1.586 0.399 2.121 0.641 0.481 0.211 0.973 0.531 1.481 0.961 0.664 0.531 1.133 1.066 1.398 1.597l-0.801 1.2c-1.199 0.402-2.132 1-2.796 1.8-0.457 0.641-0.774 1.04-0.961 1.2-0.215 0.215-0.629 0.414-1.243 0.601-0.586 0.16-1.332 0.442-2.238 0.84l-1.16 0.559 0.801 1.203v2l-1 1.398-1.602 1c-1.597-0.398-2.664-0.265-3.199 0.399-0.32 0.402-0.492 0.84-0.52 1.32 0.028 0.586 0 1.082-0.082 1.48-0.078 0.508-0.265 1.161-0.558 1.961l-0.442 1.039-0.398 6.2z" inkscape:connector-curvature="0"/>
      <path id="path210" style="fill-rule:evenodd;fill:#b2b3b5" d="m34 41.199c1.332-1.332 3.266-2.465 5.801-3.399l2.597-2.601-3.597-1c-0.586-0.16-1.028-0.438-1.321-0.84-0.16-0.211-0.253-0.399-0.281-0.559l1-2.398 2.039-0.801c1.684-0.535 3.27-0.801 4.762-0.801h7.762c-0.176-0.004-0.364-0.031-0.563-0.082-0.398-0.105-0.597-0.277-0.597-0.519 0-0.399 0.664-1.266 2-2.598-1.735 0.664-3.668 1.066-5.801 1.199-1.336 0.078-3 0.039-5-0.121l-2.602-0.277c-0.398-0.137-0.879-0.121-1.437 0.039-1.094 0.293-2.016 1.144-2.762 2.558-1.492 2.801-2.695 4.602-3.602 5.403v0.238c-0.453 3.067-0.664 6-0.636 8.801l2.238-2.242z" inkscape:connector-curvature="0"/>
      <path id="path212" style="fill-rule:evenodd;fill:#b2b3b5" d="m40.398 68.199 1.641-1.239c1.227-1.066 2.215-2.187 2.961-3.359 1.414-2.215 2.613-3.48 3.602-3.801l3.597-1.398 3.403 0.797 2 1v-1.039c-0.137-0.746-0.536-1.332-1.204-1.758-0.664-0.43-1.464-1.121-2.398-2.082l-1.16-1.281c-0.211 0.132-0.824 0.453-1.84 0.96-0.988 0.508-2.012 1.161-3.078 1.961l-1.32 1.039c0 0.536-0.27 1.266-0.801 2.2-0.321 0.586-1.215 1.496-2.68 2.722l-2.121 1.68-0.602 3.598z" inkscape:connector-curvature="0"/>
      <path id="path214" style="fill-rule:evenodd;fill:#acadb1" d="m35.641 14.718c-1.336 0.242-2.094 0.387-2.282 0.442-0.398 0.105-0.734 0.293-1 0.558 2.961 0.188 4.973 0.481 6.039 0.883 1.071 0.398 2.067 1.066 3 2l1.204 2.598 1.796 0.402 1.403-1.602 0.078-1.96c0.109-1.332 0.281-2.079 0.519-2.239 0.27-0.187 0.375-1.199 0.321-3.039-0.907 0.559-1.492 0.852-1.758 0.879-0.266 0-0.707 0.106-1.32 0.32-0.614 0.215-1.067 0.332-1.36 0.36h0.438l-1.278 0.082c-0.507 0.023-1.574 0.051-3.203 0.078-0.851 0-1.718 0.078-2.597 0.238z" inkscape:connector-curvature="0"/>
      <path id="path216" style="fill-rule:evenodd;fill:#e3e4e6" d="m64.922 54.199c1.465-0.399 2.586-0.758 3.359-1.078 1.25-0.536 2.051-1.067 2.399-1.602l-4.282-1.359c-2.476 0.535-4.425 0.8-5.839 0.8-0.879 0-1.946-0.039-3.2-0.121l-1.597-0.121-3.203-1.597-2.399-1.602c-1.601-1.066-2.762-2.051-3.48-2.961l1.879 5.602c0.48 0.48 1.027 1.015 1.64 1.601 1.176 1.117 2.039 1.863 2.602 2.238 0.906 0.559 2.426 2.04 4.558 4.442 0.668 0.105 1.895-0.254 3.68-1.082 0.883-0.426 1.695-0.867 2.441-1.32l-0.519-1.321 1.961-0.519z" inkscape:connector-curvature="0"/>
      <path id="path218" style="fill-rule:evenodd;fill:#e3e4e6" d="m41.359 50.96c-2.132 0.559-3.464 0.747-4 0.559l-0.8-0.277-0.68-1.321c-0.504-0.933-0.813-1.562-0.918-1.882l-0.281-0.797c0 0.718 0.093 1.691 0.281 2.918 0.105 0.773 0.492 1.64 1.16 2.601l0.957 1.16 0.922-0.203c0.719-0.183 1.305-0.383 1.762-0.597l1.039-0.563h2.679l1.321-1.598c-0.481 0.215-0.989 0.387-1.52 0.52-1.066 0.215-1.707 0.039-1.922-0.52z" inkscape:connector-curvature="0"/>
      <path id="path220" style="fill-rule:evenodd;fill:#b5b6b8" d="m46.398 49.64c0.536-0.348 1.254-0.172 2.161 0.52l-0.278-1.84-1.32-2.16-0.281-1.602v-3.199l-0.078-0.879c-0.082-0.852-0.227-1.895-0.442-3.121-0.168-0.969-0.25-1.649-0.238-2.039l-1.641 2.601-1.601 3.438c0 1.789-0.094 3.387-0.282 4.801-0.105 0.906-0.304 1.972-0.597 3.199l-0.442 1.601 1.039 0.801 2.403-0.801 0.519-0.48c0.399-0.348 0.758-0.629 1.078-0.84z" inkscape:connector-curvature="0"/>
      <path id="path222" style="fill-rule:evenodd;fill:#b5b6b8" d="m73.801 48.8 1.961-4.242-3.203-1.84-1.36-2.679l0.801-5.321-1.039-0.797c-0.453-0.347-0.906-0.855-1.359-1.519l-0.524-0.883-1.316-1.598 1.636 0.078c1.309 0.106 2.508 0.309 3.602 0.602 1.094 0.266 1.855 0.344 2.281 0.238 0.211-0.054 0.321-0.132 0.321-0.238l1.597-1.199c-0.238-0.375-0.574-0.735-1-1.082-0.824-0.719-1.691-1.078-2.597-1.078-0.883 0-1.895 0.039-3.043 0.117l-1.481 0.16-0.519-0.801c-0.348-0.531-1.68-1.863-4-4-1.254 0.883-2.321 1.684-3.2 2.403-0.558 0.453-1.304 0.894-2.238 1.32l-1.242 0.519 2.922 2.68 1.359 2.399 2.918 4c0.32 0.535 0.641 1.214 0.961 2.043 0.668 1.652 1.055 3.199 1.16 4.636 0.106 1.442 0.016 3.121-0.277 5.043l-0.524 2.399 4.282 1.359 3.121-2.719z" inkscape:connector-curvature="0"/>
      <path id="path224" style="fill-rule:evenodd;fill:#d3d4d6" d="m80 73.402 0.762-0.043c0.531-0.024 0.906-0.067 1.117-0.117 0.586-0.137 1.652-0.575 3.199-1.321 0.723-0.347 1.481-0.656 2.281-0.922l-0.961-1.078h-3.839l-0.797 0.918c-1.067 0.801-1.789 1.387-2.16 1.762-0.215 0.211-0.481 0.652-0.801 1.32l-0.403 0.918 1.602-1.437z" inkscape:connector-curvature="0"/>
      <path id="path226" style="fill-rule:evenodd;fill:#d3d4d6" d="m75.32 66.519 3.36-0.32c1.148-0.106 2.175-0.239 3.082-0.399l1.718 0.641 0.079-0.16c0.082-0.082 0.226-0.067 0.441 0.039l1.762 0.801-0.082-0.961c-0.106-0.746-0.305-1.453-0.602-2.121-0.453-1.067-0.945-2.747-1.476-5.04-0.696 1.067-1.309 1.774-1.84 2.122-1.254 0.984-2.11 1.652-2.563 2l-3.879 3.398z" inkscape:connector-curvature="0"/>
      <path id="path228" style="fill-rule:evenodd;fill:#e3e4e6" d="m64.879 79.519c0.32-0.266 0.601-0.437 0.84-0.52 0.402-0.132 0.828-0.734 1.281-1.8l-0.078-0.797c-0.348-0.27-0.75-0.375-1.203-0.32-0.293 0.05-0.641 0.066-1.039 0.039l-0.481-0.039 1.602-1.801-0.36-0.68c-0.269-0.562-0.507-1.133-0.722-1.723-0.344-0.933-0.785-1.796-1.321-2.597l-1.597 0.398c-0.801 0.215-1.469 0.613-2 1.199-0.321 0.375-0.668 0.696-1.039 0.961l-0.442 0.243 1.801 2.32 0.359 0.316c0.266 0.27 0.481 0.524 0.641 0.762l1.277 1.719c0.27 0.402 0.602 1.601 1 3.601l1.122-0.922 0.359-0.359z" inkscape:connector-curvature="0"/>
      <path id="path230" style="fill-rule:evenodd;fill:#e3e4e6" d="m50.121 81.601 0.641-1.402c0.133-0.453 0.304-0.719 0.519-0.797l-3.722-0.762-2-1.398c-0.184-0.27-0.36-0.414-0.52-0.442l-3.039-1 1.281 1c0.907 0.719 1.504 1.254 1.797 1.602 0.481 0.531 0.867 1.012 1.16 1.437l2.121 0.879c0.536 0.215 1.121 0.508 1.762 0.883z" inkscape:connector-curvature="0"/>
      <path id="path232" style="fill-rule:evenodd;fill:#e3e4e6" d="m67.359 57.121c-0.558 0.16-1.171 0.281-1.839 0.359l-0.84 0.039 0.558 0.402c0.348 0.266 1.094 0.758 2.242 1.481l1.36-0.602c0.348-0.133 1.015-0.293 2-0.48l0.398-0.801 0.481-0.117c0.375-0.055 0.75-0.082 1.121-0.082h2.238l-0.637-0.602c-0.8 0-1.652-0.039-2.562-0.117-0.559-0.082-1.117-0.109-1.68-0.082l-0.719 0.082c-0.535 0.078-1.242 0.25-2.121 0.52z" inkscape:connector-curvature="0"/>
      <path id="path234" style="fill-rule:evenodd;fill:#b2b3b5" d="m52.32 75.601 0.602-0.68c0.476-0.535 0.906-1.082 1.277-1.64 0.613-0.856 0.746-1.149 0.403-0.879-0.536-1.867-1.204-3.043-2-3.524-0.508-0.293-0.868-0.636-1.082-1.039l-0.2-0.558c-0.933 0.746-1.84 1.121-2.718 1.121-0.536 0-1.094 0.199-1.68 0.597l-2 1.801h2.68l0.878 0.399c0.665 0.293 1.215 0.586 1.641 0.883 0.664 0.476 1.399 1.652 2.199 3.519z" inkscape:connector-curvature="0"/>
      <path id="path236" style="fill-rule:evenodd;fill:#b2b3b5" d="m65.922 61.679 1.199-1.597c0.399-0.59 0.52-0.817 0.359-0.68l-2.8-1.883-1.2-1.48c-0.988 0.562-2.175 1.082-3.558 1.562l-2.563 0.84 0.243 1.758 0.519 1.281c0 0.879-0.109 1.785-0.32 2.719-0.106 0.586-0.414 1.468-0.922 2.64l-0.68 1.563 2-0.922 1.52-0.398 1.601-0.083 1.801-2.199c0.266-0.265 0.625-0.465 1.078-0.601-0.265-0.266-0.597-0.664-1-1.2-0.238-0.347-0.277-0.734-0.121-1.16 0.082-0.215 0.188-0.398 0.32-0.558l0.364 0.398c0.316 0.266 0.597 0.442 0.84 0.52 0.398 0.136 0.839-0.039 1.32-0.52z" inkscape:connector-curvature="0"/>
      <path id="path238" style="fill-rule:evenodd;fill:#b2b3b5" d="m72.398 57.601-1.16-0.082-0.398 0.801 0.879 0.359v1c0 0.242 0.121 0.613 0.359 1.121l0.32 0.68 2.723 1.398 0.199-1-0.121-1.398c-0.054-0.535-0.344-0.801-0.879-0.801l-0.32-0.48v-0.36c0.055-0.32 0.227-0.597 0.52-0.84l0.679-0.597-0.48-0.121c-0.211-0.028-0.664 0.011-1.36 0.121l-0.961 0.199z" inkscape:connector-curvature="0"/>
      <path id="path240" style="fill-rule:evenodd;fill:#b2b3b5" d="m35.602 70.039 0.796-1.161c0.563-0.879 0.922-1.652 1.082-2.32l0.399-1.598 1.723-2.519c0.183-0.082-0.215-0.481-1.204-1.199-0.957-0.723-1.933-1.297-2.918-1.723l-1.601-0.559c0.453 1.52 0.723 2.719 0.801 3.598l0.281 2.402 0.519 1.641 0.122 3.438z" inkscape:connector-curvature="0"/>
      <path id="path242" style="fill-rule:evenodd;fill:#73777a" d="m75.32 16.402 1.078 1.797c-0.105 0.187-0.16 0.386-0.16 0.601-0.05 0.453 0.137 0.758 0.563 0.918s0.664 0.11 0.719-0.16c0.054-0.133 0.054-0.277 0-0.437l-1.84-6.403-0.801 0.321c-2.371-0.051-4.172-0.04-5.399 0.043l-2.359 0.437c-0.883 0.16-1.828 0.105-2.84-0.16-0.906-0.238-2.226-0.758-3.961-1.559-1.519-0.695-2.375-1.039-2.558-1.039-0.137-0.054-1.59 0-4.364 0.16-1.652 0.106-2.984 0.293-4 0.559-0.691 0.238-1.144 0.375-1.359 0.398-0.211 0-0.707 0.254-1.48 0.762-0.774 0.481-1.305 0.734-1.598 0.762-0.266 0-0.707 0.105-1.32 0.316-0.504 0.176-0.899 0.289-1.18 0.34l-1.02 0.063c-2.347-0.028-4.281 0.093-5.8 0.359-1.336 0.238-2.094 0.387-2.282 0.441-0.398 0.106-0.734 0.293-1 0.559l-3.679 2.879 0.16 0.402c1.734-0.746 2.894-1.32 3.48-1.722 0.668-0.481 1.36-0.786 2.078-0.918l0.68-0.321c0.695-0.215 1.707-0.332 3.043-0.359 2.133-0.082 4.16-0.055 6.078 0.078h2.199l0.524-1.879c0.051-0.187 0.504-0.414 1.359-0.68 0.852-0.242 1.758-0.414 2.719-0.519 1.281-0.133 2.613-0.133 4 0l1.922 0.598 1.277-0.118 1.199 3.598 0.68-1.199c0.481-0.828 0.828-1.321 1.043-1.481 0.32-0.265 1.051-0.371 2.199-0.32l2.481 0.563 3.918-0.204 3.883 0.403 1.718 2.121z" inkscape:connector-curvature="0"/>
      <path id="path244" style="fill-rule:evenodd;fill:#e3e4e6" d="m78.641 31.718 0.121-2.879c0.105-2.105 0.277-3.679 0.519-4.718 0.184-0.829 0.465-1.282 0.84-1.36 0.106-0.027 0.012-0.387-0.281-1.082-0.348-0.801-0.84-1.734-1.481-2.801-0.746-1.171-1.187-1.906-1.32-2.199-0.453-0.851-0.906-2.172-1.359-3.961l-0.801 0.321c-2.371-0.051-4.172-0.04-5.399 0.043-0.292 0-1.039 0.132-2.242 0.398-0.824 0.16-1.652 0.16-2.476 0l1.636 1.641 1.282 0.078c1.039 0.082 2.015 0.121 2.922 0.121 1.464 0 2.199 0.133 2.199 0.398 0.801 0.137 1.398 0.535 1.801 1.203 0.398 0.664 1.597 2.399 3.597 5.2-0.664 0.8-1 1.464-1 2v5l-1.597 1.199-8.204 0.398 6 0.801h2.204c0.586 0 1.066 0.227 1.437 0.68 0.188 0.242 0.309 0.48 0.359 0.722 0.668 0.934 1.204 1.934 1.602 3 0.238 0.637 1.027 1.692 2.359 3.161l-2.718-7.364z" inkscape:connector-curvature="0"/>
      <g id="g246">
        <g id="g248">
          <g id="g254">
            <path id="path262" style="fill-rule:evenodd;fill:url(#linearGradient256)" d="m88.16 51.921c-0.027-0.668-0.187-1.226-0.48-1.679-0.266-0.457-0.575-0.668-0.918-0.641-0.348 0.023-0.629 0.277-0.84 0.758-0.188 0.48-0.27 1.055-0.242 1.723 0.054 0.664 0.215 1.226 0.48 1.679 0.266 0.453 0.574 0.664 0.918 0.641 0.348-0.055 0.629-0.309 0.844-0.762 0.211-0.48 0.293-1.055 0.238-1.719z" inkscape:connector-curvature="0"/>
          </g>
        </g>
      </g>
      <g id="g264">
        <g id="g266">
          <g id="g272">
            <path id="path280" style="fill-rule:evenodd;fill:url(#linearGradient274)" d="m82.762 33.242c-0.11-0.508-0.282-0.922-0.524-1.243-0.238-0.32-0.492-0.453-0.758-0.398-0.265 0.023-0.468 0.238-0.601 0.641-0.133 0.371-0.16 0.812-0.078 1.316 0.105 0.508 0.277 0.922 0.519 1.242 0.239 0.321 0.492 0.453 0.758 0.399 0.27-0.051 0.469-0.266 0.602-0.641 0.132-0.371 0.16-0.812 0.082-1.316z" inkscape:connector-curvature="0"/>
          </g>
        </g>
      </g>
      <g id="g282">
        <g id="g284">
          <g id="g290">
            <path id="path298" style="fill-rule:evenodd;fill:url(#linearGradient292)" d="m91.719 37.601c0.269-0.453 0.402-0.883 0.402-1.281 0.024-0.399-0.082-0.668-0.32-0.801-0.242-0.133-0.535-0.094-0.879 0.121-0.32 0.215-0.617 0.547-0.883 1-0.266 0.426-0.398 0.852-0.398 1.281 0 0.399 0.105 0.664 0.32 0.797 0.238 0.137 0.531 0.082 0.879-0.16 0.348-0.211 0.64-0.531 0.879-0.957z" inkscape:connector-curvature="0"/>
          </g>
        </g>
      </g>
      <g id="g300">
        <g id="g302">
          <g id="g308">
            <path id="path316" style="fill-rule:evenodd;fill:url(#linearGradient310)" d="m87.359 46.999c0.243-0.187 0.403-0.398 0.481-0.64 0.082-0.238 0.055-0.453-0.078-0.641-0.137-0.183-0.336-0.293-0.602-0.316-0.265 0-0.519 0.09-0.762 0.277-0.238 0.188-0.398 0.403-0.476 0.641-0.082 0.265-0.055 0.492 0.078 0.679 0.133 0.188 0.332 0.282 0.602 0.282 0.265 0 0.519-0.094 0.757-0.282z" inkscape:connector-curvature="0"/>
          </g>
        </g>
      </g>
      <g id="g318">
        <g id="g320">
          <g id="g326">
            <path id="path334" style="fill-rule:evenodd;fill:url(#linearGradient328)" d="m90.879 46.921c0.215-0.214 0.359-0.441 0.441-0.679 0.078-0.27 0.067-0.457-0.039-0.563-0.136-0.133-0.32-0.16-0.562-0.078-0.266 0.051-0.504 0.184-0.719 0.398-0.215 0.215-0.359 0.442-0.441 0.68-0.051 0.242-0.028 0.43 0.082 0.563 0.105 0.132 0.293 0.172 0.558 0.117 0.242-0.078 0.469-0.227 0.68-0.438z" inkscape:connector-curvature="0"/>
          </g>
        </g>
      </g>
      <g id="g336">
        <g id="g338">
          <g id="g344">
            <path id="path352" style="fill-rule:evenodd;fill:url(#linearGradient346)" d="m91.961 22.921c0.027-0.402-0.027-0.75-0.16-1.043-0.16-0.265-0.348-0.398-0.563-0.398-0.211-0.027-0.383 0.105-0.519 0.398-0.16 0.27-0.239 0.602-0.239 1-0.027 0.403 0.028 0.735 0.161 1 0.132 0.297 0.304 0.442 0.519 0.442 0.481 0 0.746-0.469 0.801-1.399z" inkscape:connector-curvature="0"/>
          </g>
        </g>
      </g>
      <g id="g354">
        <g id="g356">
          <g id="g362">
            <path id="path370" style="fill-rule:evenodd;fill:url(#linearGradient364)" d="m64.602 43.8c-0.055-0.828-0.321-1.519-0.801-2.082-0.508-0.531-1.067-0.773-1.68-0.719-0.641 0.028-1.16 0.348-1.562 0.961-0.399 0.614-0.571 1.348-0.52 2.2 0.055 0.828 0.336 1.507 0.84 2.039 0.48 0.562 1.027 0.816 1.641 0.761 0.64-0.054 1.16-0.386 1.558-1 0.402-0.613 0.574-1.336 0.524-2.16z" inkscape:connector-curvature="0"/>
          </g>
        </g>
      </g>
      <g id="g372">
        <g id="g374">
          <g id="g380">
            <path id="path388" style="fill-rule:evenodd;fill:url(#linearGradient382)" d="m54.719 36.242c-0.133-0.618-0.414-1.11-0.84-1.481-0.453-0.402-0.891-0.535-1.32-0.402-0.454 0.109-0.786 0.414-1 0.922-0.184 0.531-0.211 1.121-0.079 1.758 0.161 0.64 0.454 1.148 0.879 1.519 0.453 0.375 0.895 0.508 1.321 0.402 0.453-0.105 0.773-0.425 0.961-0.961 0.214-0.531 0.238-1.121 0.078-1.757z" inkscape:connector-curvature="0"/>
          </g>
        </g>
      </g>
      <g id="g390">
        <g id="g392">
          <g id="g398">
            <path id="path406" style="fill-rule:evenodd;fill:url(#linearGradient400)" d="m39.801 47.64c0.054-0.746-0.082-1.387-0.403-1.922-0.293-0.558-0.703-0.851-1.238-0.879-0.508-0.054-0.961 0.176-1.359 0.68-0.403 0.48-0.629 1.094-0.68 1.84-0.055 0.75 0.078 1.402 0.399 1.961 0.32 0.535 0.734 0.828 1.242 0.879 0.504 0.027 0.957-0.2 1.359-0.68 0.399-0.504 0.625-1.133 0.68-1.879z" inkscape:connector-curvature="0"/>
          </g>
        </g>
      </g>
      <g id="g408">
        <g id="g410">
          <g id="g416">
            <path id="path424" style="fill-rule:evenodd;fill:url(#linearGradient418)" d="m41.719 42.8c-0.024-0.453-0.16-0.828-0.399-1.121-0.242-0.32-0.519-0.465-0.84-0.437-0.292 0.023-0.535 0.199-0.718 0.519-0.188 0.348-0.27 0.746-0.242 1.199 0.027 0.454 0.16 0.825 0.402 1.122 0.238 0.32 0.504 0.464 0.797 0.437 0.32-0.027 0.574-0.199 0.761-0.52 0.215-0.347 0.293-0.746 0.239-1.199z" inkscape:connector-curvature="0"/>
          </g>
        </g>
      </g>
      <g id="g426">
        <g id="g428">
          <g id="g434">
            <path id="path442" style="fill-rule:evenodd;fill:url(#linearGradient436)" d="m51.121 17.199c-0.109-0.664-0.359-1.211-0.762-1.641-0.425-0.426-0.879-0.598-1.359-0.519-0.48 0.082-0.855 0.386-1.121 0.921-0.293 0.532-0.387 1.133-0.277 1.801 0.105 0.664 0.371 1.211 0.796 1.641 0.403 0.426 0.856 0.597 1.364 0.519 0.476-0.082 0.851-0.386 1.117-0.922 0.266-0.531 0.348-1.132 0.242-1.8z" inkscape:connector-curvature="0"/>
          </g>
        </g>
      </g>
      <g id="g444">
        <g id="g446">
          <g id="g452">
            <path id="path460" style="fill-rule:evenodd;fill:url(#linearGradient454)" d="m57.961 20.679c-0.106-0.531-0.359-0.961-0.762-1.277-0.371-0.297-0.758-0.403-1.16-0.32-0.426 0.105-0.734 0.371-0.918 0.796-0.187 0.457-0.226 0.95-0.121 1.481 0.133 0.535 0.375 0.961 0.719 1.281 0.375 0.32 0.773 0.426 1.203 0.32 0.398-0.082 0.703-0.347 0.918-0.8s0.254-0.946 0.121-1.481z" inkscape:connector-curvature="0"/>
          </g>
        </g>
      </g>
      <g id="g462">
        <g id="g464">
          <g id="g470">
            <path id="path478" style="fill-rule:evenodd;fill:url(#linearGradient472)" d="m59.398 29.921c-0.238-0.453-0.558-0.773-0.957-0.961-0.402-0.187-0.773-0.187-1.121 0-0.347 0.188-0.547 0.493-0.601 0.918-0.051 0.457 0.043 0.907 0.281 1.364 0.238 0.453 0.574 0.773 1 0.957 0.398 0.215 0.773 0.226 1.121 0.043 0.32-0.188 0.504-0.508 0.559-0.961 0.082-0.453-0.012-0.907-0.282-1.36z" inkscape:connector-curvature="0"/>
          </g>
        </g>
      </g>
      <g id="g480">
        <g id="g482">
          <g id="g488">
            <path id="path496" style="fill-rule:evenodd;fill:url(#linearGradient490)" d="m41.879 59.121c-0.16-0.586-0.426-1.055-0.801-1.403-0.398-0.344-0.797-0.465-1.199-0.359-0.371 0.109-0.641 0.402-0.801 0.883-0.156 0.504-0.156 1.05 0 1.636 0.16 0.59 0.442 1.055 0.844 1.403 0.371 0.347 0.758 0.465 1.156 0.359 0.375-0.105 0.641-0.414 0.801-0.922 0.16-0.476 0.16-1.011 0-1.597z" inkscape:connector-curvature="0"/>
          </g>
        </g>
      </g>
      <g id="g498">
        <g id="g500">
          <g id="g506">
            <path id="path514" style="fill-rule:evenodd;fill:url(#linearGradient508)" d="m48.879 52.519c-0.106-0.453-0.332-0.812-0.68-1.078-0.344-0.266-0.691-0.348-1.039-0.242-0.348 0.082-0.613 0.308-0.801 0.679-0.16 0.403-0.187 0.829-0.078 1.282 0.106 0.453 0.321 0.812 0.641 1.082 0.344 0.265 0.691 0.343 1.039 0.238 0.344-0.078 0.613-0.305 0.801-0.68 0.183-0.398 0.226-0.828 0.117-1.281z" inkscape:connector-curvature="0"/>
          </g>
        </g>
      </g>
      <g id="g516">
        <g id="g518">
          <g id="g524">
            <path id="path532" style="fill-rule:evenodd;fill:url(#linearGradient526)" d="m55.84 67.281c0.055-0.508 0-0.946-0.16-1.321s-0.375-0.574-0.641-0.601c-0.266-0.024-0.504 0.133-0.719 0.48-0.215 0.321-0.347 0.735-0.398 1.243-0.055 0.503 0 0.933 0.156 1.277 0.137 0.375 0.336 0.574 0.602 0.601 0.265 0.028 0.508-0.121 0.718-0.441 0.243-0.32 0.387-0.734 0.442-1.238z" inkscape:connector-curvature="0"/>
          </g>
        </g>
      </g>
      <g id="g534">
        <g id="g536">
          <g id="g542">
            <path id="path550" style="fill-rule:evenodd;fill:url(#linearGradient544)" d="m53.602 84.121c0.05-0.563-0.043-1.039-0.282-1.442-0.265-0.426-0.613-0.652-1.039-0.68-0.426-0.054-0.801 0.106-1.121 0.481s-0.508 0.84-0.558 1.398c-0.028 0.563 0.078 1.043 0.32 1.442 0.266 0.398 0.613 0.625 1.039 0.679 0.426 0.028 0.801-0.132 1.117-0.48 0.32-0.371 0.496-0.84 0.524-1.398z" inkscape:connector-curvature="0"/>
          </g>
        </g>
      </g>
      <path id="path552" style="fill-rule:evenodd;fill:#f7f8fa" d="m70.602 79.601 0.32 0.398 0.797 1.801h0.601c0.399 0 0.879 0.172 1.442 0.52l0.039-0.84-1.121-0.238c0.027-0.563-0.2-1.176-0.68-1.84-0.293-0.43-0.559-0.778-0.801-1.043l-0.277-0.277 0.68-2.403 2.597-3c0.133-0.187 0.199-0.613 0.199-1.277l1-1.203-0.078-3.68c-0.398 2.105-0.668 3.266-0.8 3.48l-0.719 0.68-0.082 1.32c-0.211 0.266-0.414 0.559-0.598 0.879-0.133 0.215-0.508 0.536-1.121 0.961l-0.879 0.563-1.723 3.68-0.476 0.398-3.602 2c-0.215 0.133-0.574 0.441-1.082 0.922l-0.718 0.68-0.598 1.597-3 1.602-4.723 1.597c-0.746 0.243-1.812 0.442-3.199 0.602l-4.801 0.121c-0.984 0.531-1.785 1.066-2.398 1.598-0.375 0.32-1.547 0.988-3.52 2l-2.883 1.441 2.641-1.039c1.816-0.723 2.867-1.16 3.16-1.32 0.481-0.266 1.481-1 3-2.199l1-0.083c0.668-0.078 2.403-0.078 5.199 0l5.641-1.64c0.961-0.344 1.586-0.598 1.883-0.758 0.453-0.266 1.144-0.469 2.078-0.602l1.32-1.519 0.282-1.078 1.757-0.801c1.227-0.586 1.946-0.961 2.161-1.121 0.32-0.266 1.015-0.559 2.082-0.879z" inkscape:connector-curvature="0"/>
      <path id="path554" style="fill-rule:evenodd;fill:#f7f8fa" d="m92.238 77.679-0.84-3.68-1.199-1.32-0.801-0.597c-0.453-1.469-0.785-2.297-1-2.481l-1.597-2-1-1.602c-0.321-0.265-0.879-0.398-1.68-0.398-0.508 0-0.976-0.043-1.402-0.121l-0.52-0.078-1.277 0.476c-0.988 0.27-1.734 0.375-2.242 0.321-0.321-0.051-0.774-0.067-1.36-0.039l-0.8 0.039-1.2 0.32-0.199 0.961 0.238-0.32c0.266-0.215 0.719-0.305 1.36-0.282l1.679-0.199c1.227-0.133 2.094-0.199 2.602-0.199 0.801 0 1.801 0.105 3 0.32l0.602 0.321c0.453 0.293 0.824 0.586 1.117 0.878 0.453 0.454 1.082 0.989 1.883 1.602 0.343 0.051 0.519 0.453 0.519 1.199 0 0.453-0.094 0.84-0.281 1.16l-0.32 0.321-3.321 1.718 1.321-0.519c0.96-0.32 1.613-0.481 1.96-0.481h1.321c0.879 0.536 1.344 1.067 1.398 1.602 0.055 0.32 0.242 0.906 0.563 1.758l0.437 1.199 1.039 0.121z" inkscape:connector-curvature="0"/>
    </g>
  </g>
<metadata><rdf:RDF><cc:Work><dc:format>image/svg+xml</dc:format><dc:type rdf:resource="http://purl.org/dc/dcmitype/StillImage"/><cc:license rdf:resource="http://creativecommons.org/licenses/publicdomain/"/><dc:publisher><cc:Agent rdf:about="http://openclipart.org/"><dc:title>Openclipart</dc:title></cc:Agent></dc:publisher></cc:Work><cc:License rdf:about="http://creativecommons.org/licenses/publicdomain/"><cc:permits rdf:resource="http://creativecommons.org/ns#Reproduction"/><cc:permits rdf:resource="http://creativecommons.org/ns#Distribution"/><cc:permits rdf:resource="http://creativecommons.org/ns#DerivativeWorks"/></cc:License></rdf:RDF></metadata></svg>
